<svg xmlns="http://www.w3.org/2000/svg" viewBox="0 0 64 64" width="64" height="64">
  <defs>
    <linearGradient id="shoeGrad" x1="0%" y1="0%" x2="100%" y2="100%">
      <stop offset="0%" stop-color="#0d6efd" />
      <stop offset="100%" stop-color="#0039a6" />
    </linearGradient>
  </defs>
  <circle cx="32" cy="32" r="30" fill="url(#shoeGrad)" />
  <path d="M16 38c0 0 3-12 12-14 4-1 9 1 12 5 2 3 5 4 8 4 3 0 5 2 5 5v2c0 2-2 3-4 3H18c-2 0-2-2-2-5z" fill="#ffffff" />
  <path d="M16 43h32v3H16z" fill="#ff6600" />
  <circle cx="28" cy="27" r="1.5" fill="#0d6efd"/>
  <circle cx="33" cy="29" r="1.5" fill="#0d6efd"/>
</svg>
